# Blender v2.83.1 OBJ File: 'untitled.blend'
# www.blender.org
mtllib Quartpipe.mtl
o Cube
v -1.000000 -0.002427 1.000000
v -1.000000 -0.002427 -1.000000
v 1.000000 -0.002427 1.000000
v 1.000000 1.997573 1.000000
v 1.000000 -0.002427 -1.000000
v 1.000000 1.997573 -1.000000
v -0.820437 0.075400 1.000000
v 0.443072 1.080041 1.000000
v -0.101369 0.535600 1.000000
v -0.820437 0.075400 -1.000000
v -0.101369 0.535600 -1.000000
v 0.443072 1.080041 -1.000000
v 0.731494 1.997573 1.000000
v 0.664667 1.423030 1.000000
v 0.725582 1.642654 1.000000
v 0.664667 1.423030 -1.000000
v 0.731494 1.997573 -1.000000
v 0.725582 1.642654 -1.000000
v 1.000000 1.632015 -1.000000
v 1.000000 1.632015 1.000000
vt 0.349992 0.500000
vt 0.381415 0.480543
vt 0.507249 0.365493
vt 0.699984 0.500000
vt 0.063971 0.500000
vt 0.000000 0.500000
vt 0.000000 0.000000
vt 0.063971 0.000000
vt 0.699984 0.000000
vt 0.734117 0.000000
vt 0.734117 0.500000
vt 0.699984 0.500000
vt 0.349992 1.000000
vt 0.349992 0.500000
vt 0.699984 0.500000
vt 0.699984 1.000000
vt 0.868267 0.500000
vt 0.912762 0.500000
vt 0.912762 1.000000
vt 0.868267 1.000000
vt 1.000000 0.000000
vt 1.000000 0.500000
vt 0.879158 0.500000
vt 0.879158 0.000000
vt 0.799729 1.000000
vt 0.799729 0.500000
vt 0.868267 0.500000
vt 0.868267 1.000000
vt 0.699984 1.000000
vt 0.699984 0.500000
vt 0.759850 0.500000
vt 0.759850 1.000000
vt 0.349992 0.500000
vt 0.349992 0.908611
vt 0.349992 1.000000
vt 0.303004 1.000000
vt 0.301970 0.911270
vt 0.291310 0.856364
vt 0.252532 0.770617
vt 0.157257 0.634507
vt 0.031423 0.519457
vt 0.000000 0.500000
vt 0.602524 0.229383
vt 0.641302 0.143636
vt 0.651962 0.088730
vt 0.699984 0.091389
vt 0.349992 0.000000
vt 0.652996 0.000000
vt 0.699984 0.000000
vn 0.0000 -0.0000 -1.0000
vn 1.0000 0.0000 0.0000
vn -0.3977 0.9175 0.0000
vn 0.0000 -1.0000 0.0000
vn 0.0000 1.0000 0.0000
vn -0.7071 0.7071 0.0000
vn -0.5391 0.8423 0.0000
vn -0.8399 0.5427 0.0000
vn -0.9999 0.0167 0.0000
vn -0.9636 0.2673 0.0000
vn -0.0000 0.0000 1.0000
usemtl Material.001
s off
f 2/1/1 10/2/1 11/3/1 5/4/1
f 19/5/2 6/6/2 4/7/2 20/8/2
f 1/9/3 7/10/3 10/11/3 2/12/3
f 2/13/4 5/14/4 3/15/4 1/16/4
f 6/17/5 17/18/5 13/19/5 4/20/5
f 8/21/6 12/22/6 11/23/6 9/24/6
f 9/24/7 11/23/7 10/11/7 7/10/7
f 14/25/8 16/26/8 12/27/8 8/28/8
f 13/29/9 17/30/9 18/31/9 15/32/9
f 15/32/10 18/31/10 16/26/10 14/25/10
f 3/33/11 20/34/11 4/35/11 13/36/11 15/37/11 14/38/11 8/39/11 9/40/11 7/41/11 1/42/11
f 5/4/1 11/3/1 12/43/1 16/44/1
f 16/44/1 18/45/1 19/46/1 5/4/1
f 5/14/2 19/5/2 20/8/2 3/47/2
f 19/46/1 18/45/1 17/48/1 6/49/1
