# Blender v2.83.1 OBJ File: 'taxi.blend'
# www.blender.org
mtllib taxi.mtl
o Cube
v -0.048700 -0.352542 0.607642
v -0.048700 0.504463 0.607642
v -0.048700 -0.352542 -0.607642
v -0.048700 0.504463 -0.607642
v 0.808305 -0.352542 0.607642
v 0.808305 0.504463 0.607642
v 0.808305 -0.352542 -0.607642
v 0.808305 0.504463 -0.607642
v 0.952652 -0.352542 0.607642
v 0.952652 0.464916 0.607642
v 0.952652 -0.352542 -0.607642
v 0.952652 0.464916 -0.607642
v 1.395686 -0.341710 0.591175
v 1.398759 0.219910 0.591701
v 1.395686 -0.341710 -0.591175
v 1.398759 0.219910 -0.591701
v 1.906646 -0.252422 0.558550
v 1.908959 0.170197 0.558550
v 1.906646 -0.252422 -0.558550
v 1.908959 0.170197 -0.558550
v -0.690671 -0.355179 0.608333
v -0.624733 0.197456 0.607642
v -0.690671 -0.355179 -0.608333
v -0.624733 0.197456 -0.607642
v -1.640704 -0.328367 0.559455
v -1.640704 0.072001 0.559455
v -1.640704 -0.328367 -0.559455
v -1.640704 0.072001 -0.559455
v -1.157577 0.131659 -0.591800
v -1.157577 0.131659 0.591800
v -1.157577 -0.339863 0.592523
v -1.157577 -0.339863 -0.592523
v -0.048700 0.079282 0.607642
v -0.048700 0.079282 -0.607642
v 0.808305 0.079282 -0.607642
v 0.808305 0.079282 0.607642
v 0.952652 -0.193846 -0.607642
v 0.952652 -0.193846 0.607642
v 1.397234 -0.211699 -0.591852
v 1.397234 -0.211699 0.591852
v 1.907812 -0.039475 -0.558550
v 1.907812 -0.039475 0.558550
v -0.717046 -0.133436 0.609583
v -0.717046 -0.133436 -0.609583
v -1.640704 -0.126631 0.559455
v -1.640704 -0.126631 -0.559455
v -1.131202 -0.112825 0.587109
v -1.131202 -0.112825 -0.587109
v 1.101354 0.383247 0.601738
v 1.250057 0.301579 0.595834
v 1.250057 0.301579 -0.595834
v 1.101354 0.383247 -0.601738
v 1.248008 -0.508847 -0.595833
v 1.100330 -0.512457 -0.601738
v 1.100330 -0.512457 0.601738
v 1.248008 -0.508847 0.595834
v 1.100846 -0.065284 0.601738
v 1.249040 -0.071235 0.595834
v 1.100846 -0.065284 -0.601738
v 1.249040 -0.071235 -0.595833
v -1.010892 0.149772 0.587378
v -0.833277 0.171705 0.586509
v -1.010892 -0.501604 -0.583743
v -0.833277 -0.505831 -0.584815
v -0.833277 0.171705 -0.586508
v -1.010892 0.149772 -0.587378
v -0.833277 -0.505831 0.584816
v -1.010892 -0.501604 0.583743
v -0.833277 -0.046362 -0.586795
v -1.010892 -0.055317 -0.587528
v -0.833277 -0.046362 0.586795
v -1.010892 -0.055317 0.587528
v 0.952652 -0.193846 -0.681460
v 0.952652 -0.352542 -0.681460
v 0.952652 -0.193846 0.681460
v 0.952652 -0.352542 0.681460
v 1.397234 -0.211699 -0.662136
v 1.395686 -0.341710 -0.661800
v 1.397234 -0.211699 0.662136
v 1.395686 -0.341710 0.661800
v 1.100330 -0.512457 -0.674838
v 1.248008 -0.508847 0.668217
v -0.717046 -0.133436 -0.682886
v -0.690671 -0.355179 -0.681821
v -0.833277 -0.505831 -0.678868
v -1.010892 -0.501604 0.677261
v -1.157577 -0.339863 0.679953
v -1.131202 -0.112825 0.679014
v -0.690671 -0.355179 0.681821
v -0.717046 -0.133436 0.682886
v -1.157577 -0.339863 -0.677550
v -1.131202 -0.112825 -0.678814
v -1.010892 -0.055317 -0.680974
v -1.010892 -0.055317 0.681377
v 1.249040 -0.071235 0.668217
v 1.249040 -0.071235 -0.668217
v 1.248008 -0.508847 -0.668217
v 1.100330 -0.512457 0.674838
v 1.100846 -0.065284 0.674838
v 1.100846 -0.065284 -0.674838
v -1.010892 -0.501604 -0.676858
v -0.833277 -0.505831 0.679271
v -0.833277 -0.046362 -0.680947
v -0.833277 -0.046362 0.681351
v -0.048700 -0.352542 -0.394027
v -0.048700 0.504463 -0.394027
v 0.808305 -0.352542 -0.394027
v 0.808305 0.504463 -0.394027
v 0.952652 -0.352542 -0.394027
v 0.952652 0.464916 -0.394027
v 1.395686 -0.341710 -0.383349
v 1.398759 0.219910 -0.383690
v 1.906646 -0.252422 -0.362193
v 1.908959 0.170197 -0.362193
v -0.690671 -0.355179 -0.394475
v -0.624733 0.197456 -0.394027
v -1.640704 -0.328367 -0.362780
v -1.640704 0.072001 -0.362780
v -1.157577 -0.339863 -0.384223
v -1.157577 0.131659 -0.383754
v -1.640704 -0.126631 -0.362780
v 1.907812 -0.039475 -0.362193
v 1.100330 -0.512457 -0.390198
v 1.248008 -0.508847 -0.386370
v 1.101354 0.383247 -0.390198
v 1.250057 0.301579 -0.386370
v -0.833277 0.171705 -0.380323
v -1.010892 0.149772 -0.380887
v -0.833277 -0.505831 -0.379225
v -1.010892 -0.501604 -0.378529
v -0.048700 -0.352542 0.421465
v 0.808305 0.504463 0.421465
v 0.952652 0.464916 0.421465
v 1.398759 0.219910 0.410408
v 1.908959 0.170197 0.387414
v -0.690671 -0.355179 0.421944
v -1.640704 -0.328367 0.388042
v -1.157577 0.131659 0.410477
v 1.907812 -0.039475 0.387414
v 1.100330 -0.512457 0.417370
v 1.248008 -0.508847 0.413274
v -0.833277 0.171705 0.406807
v -1.010892 0.149772 0.407410
v -0.048700 0.504463 0.421465
v 0.808305 -0.352542 0.421465
v 0.952652 -0.352542 0.421465
v 1.395686 -0.341710 0.410044
v 1.906646 -0.252422 0.387414
v -0.624733 0.197456 0.421465
v -1.640704 0.072001 0.388042
v -1.157577 -0.339863 0.410978
v -1.640704 -0.126631 0.388042
v 1.101354 0.383247 0.417370
v 1.250057 0.301579 0.413274
v -0.833277 -0.505831 0.405632
v -1.010892 -0.501604 0.404888
vt 0.452573 0.878337
vt 0.452573 0.769852
vt 0.279528 0.769189
vt 0.272418 0.824896
vt 0.452573 0.985152
vt 0.683582 0.985152
vt 0.683582 0.878337
vt 0.857278 0.054753
vt 0.855161 0.038230
vt 0.866558 0.036169
vt 0.870892 0.053574
vt 0.683582 0.878337
vt 0.683582 0.985152
vt 0.452573 0.985152
vt 0.452573 0.878337
vt 0.778330 0.125055
vt 0.858504 0.125008
vt 0.856809 0.140428
vt 0.779178 0.139730
vt 0.567400 0.632138
vt 0.754717 0.592569
vt 0.755065 0.606367
vt 0.580271 0.648513
vt 0.132383 0.307222
vt 0.086843 0.306872
vt 0.087993 0.270467
vt 0.136448 0.272800
vt 0.111979 0.367307
vt 0.080337 0.366831
vt 0.090333 0.352733
vt 0.122934 0.351347
vt 0.725567 0.978908
vt 0.722491 0.809720
vt 0.683582 0.769852
vt 0.722491 0.769852
vt 0.722491 0.809720
vt 0.842330 0.805235
vt 0.841913 0.772573
vt 0.975337 0.797465
vt 0.967654 0.852193
vt 0.802383 0.840523
vt 0.807540 0.916116
vt 0.842741 0.913666
vt 0.842330 0.805235
vt 0.759480 0.824258
vt 0.799541 0.827432
vt 0.804212 0.843532
vt 0.750990 0.838420
vt 0.894986 0.044575
vt 0.897060 0.030156
vt 0.916804 0.037466
vt 0.910758 0.055126
vt 0.203270 0.182423
vt 0.203555 0.269963
vt 0.160858 0.267375
vt 0.160058 0.177774
vt 0.963433 0.048493
vt 0.961231 0.063049
vt 0.147766 0.266016
vt 0.088086 0.258488
vt 0.156714 0.251316
vt 0.193534 0.257917
vt 0.951968 0.904868
vt 0.967654 0.852193
vt 0.868856 0.447654
vt 0.859737 0.429424
vt 0.909499 0.408076
vt 0.918119 0.425308
vt 0.311451 0.909255
vt 0.272418 0.824896
vt 0.137349 0.649764
vt 0.106101 0.650036
vt 0.058045 0.576644
vt 0.103053 0.576644
vt 0.718480 0.147539
vt 0.712974 0.131033
vt 0.085716 0.503049
vt 0.084071 0.547360
vt 0.039353 0.548837
vt 0.038643 0.503819
vt 0.667642 0.133406
vt 0.663540 0.150208
vt 0.618015 0.143199
vt 0.618908 0.129967
vt 0.160781 0.830075
vt 0.153672 0.773037
vt 0.048346 0.778366
vt 0.058323 0.827769
vt 0.160781 0.830075
vt 0.145371 0.897842
vt 0.072737 0.878088
vt 0.058323 0.827769
vt 0.193211 0.844522
vt 0.186864 0.903858
vt 0.158354 0.813678
vt 0.160578 0.764662
vt 0.179404 0.772100
vt 0.180324 0.806787
vt 0.685244 0.144190
vt 0.683961 0.157258
vt 0.854304 0.455247
vt 0.845253 0.437154
vt 0.186864 0.903858
vt 0.193211 0.844522
vt 0.145371 0.897842
vt 0.755882 0.828226
vt 0.797758 0.827798
vt 0.802072 0.843128
vt 0.750104 0.841479
vt 0.153672 0.773037
vt 0.048346 0.778367
vt 0.072737 0.878088
vt 0.084380 0.462211
vt 0.037307 0.462981
vt 0.452573 0.769852
vt 0.279528 0.769189
vt 0.841913 0.772573
vt 0.975337 0.797465
vt 0.202978 0.092259
vt 0.159234 0.097759
vt 0.807540 0.916116
vt 0.802383 0.840523
vt 0.842741 0.913666
vt 0.801313 0.749101
vt 0.760717 0.750504
vt 0.752655 0.735707
vt 0.806760 0.733061
vt 0.947661 0.907329
vt 0.725567 0.978908
vt 0.683582 0.769852
vt 0.722491 0.769852
vt 0.311451 0.909255
vt 0.190902 0.734478
vt 0.199490 0.751703
vt 0.820178 0.767790
vt 0.799117 0.749279
vt 0.803893 0.733711
vt 0.834970 0.759193
vt 0.762437 0.842018
vt 0.766265 0.958391
vt 0.883700 0.030252
vt 0.886310 0.042952
vt 0.244592 0.851699
vt 0.187006 0.841819
vt 0.197398 0.826668
vt 0.239461 0.835704
vt 0.288695 0.774624
vt 0.288695 0.819898
vt 0.269496 0.812212
vt 0.271674 0.781232
vt 0.766265 0.958391
vt 0.762437 0.842018
vt 0.088614 0.331537
vt 0.129276 0.330980
vt 0.192337 0.736767
vt 0.249902 0.735692
vt 0.242190 0.755120
vt 0.200219 0.753112
vt 0.818160 0.810013
vt 0.834970 0.818898
vt 0.241088 0.846772
vt 0.237182 0.906438
vt 0.815087 0.473425
vt 0.805725 0.454708
vt 0.827519 0.446121
vt 0.836556 0.464187
vt 0.700737 0.154091
vt 0.696324 0.142351
vt 0.734879 0.807693
vt 0.720305 0.814813
vt 0.237182 0.906438
vt 0.241088 0.846772
vt 0.796847 0.843599
vt 0.796569 0.733660
vt 0.836376 0.775649
vt 0.836793 0.808311
vt 0.199978 0.843907
vt 0.199978 0.731789
vt 0.160439 0.772422
vt 0.167548 0.829459
vt 0.199978 0.731789
vt 0.199978 0.843907
vt 0.167548 0.829460
vt 0.160439 0.772422
vt 0.796569 0.733660
vt 0.796847 0.843599
vt 0.836793 0.808311
vt 0.836376 0.775649
vt 0.716954 0.772928
vt 0.716954 0.812796
vt 0.756900 0.845094
vt 0.756761 0.732753
vt 0.716954 0.812796
vt 0.716954 0.772928
vt 0.756761 0.732753
vt 0.756900 0.845094
vt 0.286295 0.768574
vt 0.279185 0.824281
vt 0.247855 0.846157
vt 0.247855 0.730727
vt 0.279185 0.824281
vt 0.286295 0.768574
vt 0.247855 0.730727
vt 0.247855 0.846156
vt 0.819583 0.810043
vt 0.833985 0.819212
vt 0.162320 0.809294
vt 0.181165 0.804732
vt 0.738885 0.770855
vt 0.723481 0.764613
vt 0.166691 0.762645
vt 0.186626 0.772110
vt 0.240695 0.853505
vt 0.181165 0.844226
vt 0.191658 0.828447
vt 0.235645 0.832738
vt 0.735515 0.767877
vt 0.738763 0.803532
vt 0.723913 0.809060
vt 0.722531 0.762458
vt 0.819322 0.767489
vt 0.836613 0.759286
vt 0.286723 0.818942
vt 0.270094 0.809630
vt 0.252063 0.732566
vt 0.293231 0.771928
vt 0.272258 0.777120
vt 0.244429 0.748417
vt 0.756803 0.748643
vt 0.749683 0.734366
vt 0.695406 0.029157
vt 0.693103 0.042949
vt 0.682148 0.045533
vt 0.677695 0.030287
vt 0.714735 0.033455
vt 0.710132 0.053064
vt 0.871056 0.533156
vt 0.888855 0.524318
vt 0.850831 0.544879
vt 0.411947 0.330165
vt 0.365606 0.330308
vt 0.379969 0.307061
vt 0.430503 0.307706
vt 0.392765 0.347858
vt 0.350466 0.349109
vt 0.913282 0.125598
vt 0.897673 0.135804
vt 0.889010 0.137418
vt 0.873203 0.126562
vt 0.535062 0.112764
vt 0.533144 0.192629
vt 0.482868 0.194477
vt 0.484412 0.112672
vt 0.264085 0.459272
vt 0.265422 0.500110
vt 0.903667 0.517244
vt 0.664943 0.057611
vt 0.658110 0.038723
vt 0.614544 0.068122
vt 0.611390 0.052347
vt 0.267903 0.545888
vt 0.778183 0.039977
vt 0.777635 0.057188
vt 0.256641 0.648723
vt 0.274877 0.576644
vt 0.951028 0.491096
vt 0.432994 0.274287
vt 0.375234 0.273639
vt 0.471312 0.262276
vt 0.521242 0.260696
vt 0.960502 0.118837
vt 0.539296 0.197551
vt 0.520820 0.260449
vt 0.481368 0.274003
vt 0.363174 0.369344
vt 0.327458 0.368364
vt 0.394209 0.282115
vt 0.450996 0.279541
vt 0.521166 0.557990
vt 0.689775 0.513783
vt 0.710164 0.529301
vt 0.524562 0.574556
vt 0.869598 0.142304
vt 0.899755 0.148226
vt 0.918386 0.140372
vt 0.962147 0.130705
vt 0.911615 0.533132
vt 0.958541 0.506115
vt 0.283876 0.648486
vt 0.314104 0.576644
vt 0.306448 0.499439
vt 0.307158 0.544457
vt 0.896743 0.540087
vt 0.305112 0.458601
vt 0.886679 0.148422
vt 0.858991 0.561191
vt 0.878932 0.548901
vt 0.838818 0.138718
vt 0.838818 0.236282
vt 0.806307 0.207503
vt 0.806020 0.170407
vn 0.0023 -0.0018 -1.0000
vn 0.0000 0.0000 -1.0000
vn 0.0000 -1.0000 0.0000
vn 0.0000 0.0000 1.0000
vn 0.0000 1.0000 0.0000
vn 0.4814 0.8765 0.0000
vn 0.2642 0.9645 0.0000
vn 0.0650 -0.0025 0.9979
vn 0.0274 0.0001 -0.9996
vn 0.6879 0.7258 0.0000
vn 0.7494 -0.6621 0.0000
vn 1.0000 -0.0055 0.0000
vn 0.1721 -0.9851 0.0000
vn 0.0970 0.9953 0.0000
vn 0.0650 -0.0000 -0.9979
vn -0.1226 0.9925 0.0000
vn 0.0005 0.0025 1.0000
vn -0.4703 0.8825 0.0000
vn 0.0041 -1.0000 0.0000
vn -1.0000 0.0000 0.0000
vn -0.0238 -0.9997 0.0000
vn -0.0611 0.0164 -0.9980
vn -0.0593 -0.0141 0.9981
vn 0.0176 -0.0091 0.9998
vn -0.0504 0.9987 0.0000
vn -0.7407 -0.6718 0.0000
vn 0.0176 -0.0091 -0.9998
vn -0.7347 -0.6784 0.0000
vn -0.0611 0.0164 0.9980
vn -0.0593 -0.0141 -0.9981
vn 0.0023 -0.0018 1.0000
vn 0.0650 -0.0025 -0.9979
vn 0.0274 0.0001 0.9996
vn 0.0650 -0.0000 0.9979
vn 0.0005 0.0025 -1.0000
vn 0.5996 0.8003 0.0000
vn 0.0244 -0.9997 0.0000
vn 0.0397 -0.0000 0.9992
vn 0.0397 -0.0001 0.9992
vn 0.9930 0.1181 0.0000
vn 0.0397 -0.0000 -0.9992
vn 0.0397 -0.0001 -0.9992
vn -0.9933 0.1154 0.0000
vn -0.1292 0.0257 -0.9913
vn 0.0044 0.0010 -1.0000
vn 0.7262 -0.6874 0.0000
vn -0.1292 0.0257 0.9913
vn 0.0044 0.0010 1.0000
vn 0.0423 -0.0008 0.9991
vn -0.0085 -0.0077 -0.9999
vn -0.0006 -0.0047 1.0000
vn 0.0423 -0.0008 -0.9991
vn 0.0447 -0.0000 -0.9990
vn 0.0447 -0.0001 -0.9990
vn 0.0447 -0.0000 0.9990
vn 0.0447 -0.0001 0.9990
vn -0.0145 -0.0052 0.9999
vn -0.0055 -0.0068 1.0000
vn -0.0176 -0.0053 -0.9998
vn -0.0055 -0.0068 -1.0000
vn -0.6553 0.7554 0.0000
vn 0.9999 -0.0119 0.0000
vn 0.0401 0.9992 -0.0000
vn -0.4313 0.9022 0.0000
vn -0.0246 0.0025 0.9997
vn -0.0263 0.0026 -0.9997
vn -0.0328 -0.9995 0.0000
vn 0.0190 0.0671 0.9976
vn 0.0203 0.0718 -0.9972
usemtl Material.001
s off
f 34/1/1 3/2/1 23/3/1 44/4/1
f 34/1/2 4/5/2 8/6/2 35/7/2
f 107/8/3 7/9/3 11/10/3 109/11/3
f 36/12/4 6/13/4 2/14/4 33/15/4
f 131/16/3 145/17/3 5/18/3 1/19/3
f 132/20/5 144/21/5 2/22/5 6/23/5
f 154/24/6 50/25/6 14/26/6 134/27/6
f 132/28/7 6/29/7 10/30/7 133/31/7
f 35/7/2 8/6/2 12/32/2 37/33/2
f 36/12/4 5/34/4 9/35/4 38/36/4
f 40/37/8 13/38/8 17/39/8 42/40/8
f 60/41/9 51/42/9 16/43/9 39/44/9
f 60/45/10 39/46/10 77/47/10 96/48/10
f 124/49/11 53/50/11 15/51/11 111/52/11
f 139/53/12 135/54/12 18/55/12 42/56/12
f 111/52/13 15/51/13 19/57/13 113/58/13
f 134/59/14 14/60/14 18/61/14 135/62/14
f 39/44/15 16/43/15 20/63/15 41/64/15
f 120/65/16 29/66/16 28/67/16 118/68/16
f 33/15/17 2/14/17 22/69/17 43/70/17
f 106/71/18 4/72/18 24/73/18 116/74/18
f 131/16/19 1/19/19 21/75/19 136/76/19
f 121/77/20 118/78/20 28/79/20 46/80/20
f 151/81/21 31/82/21 25/83/21 137/84/21
f 48/85/22 32/86/22 27/87/22 46/88/22
f 47/89/23 30/90/23 26/91/23 45/92/23
f 72/93/24 61/94/24 30/90/24 47/89/24
f 70/95/25 69/96/25 103/97/25 93/98/25
f 156/99/26 68/100/26 31/82/26 151/81/26
f 128/101/16 66/102/16 29/66/16 120/65/16
f 66/103/27 70/104/27 48/85/27 29/105/27
f 9/106/28 55/107/28 98/108/28 76/109/28
f 31/110/29 47/89/29 45/92/29 25/111/29
f 29/105/30 48/85/30 46/88/30 28/112/30
f 117/113/20 121/77/20 46/80/20 27/114/20
f 1/115/31 33/15/31 43/70/31 21/116/31
f 15/117/32 39/44/32 41/64/32 19/118/32
f 148/119/12 139/53/12 42/56/12 17/120/12
f 50/121/33 58/122/33 40/37/33 14/123/33
f 40/124/10 58/125/10 95/126/10 79/127/10
f 14/123/34 40/37/34 42/40/34 18/128/34
f 6/13/4 36/12/4 38/36/4 10/129/4
f 7/130/2 35/7/2 37/33/2 11/131/2
f 5/34/4 36/12/4 33/15/4 1/115/4
f 3/2/2 34/1/2 35/7/2 7/130/2
f 4/5/35 34/1/35 44/4/35 24/132/35
f 69/96/36 44/133/36 83/134/36 103/97/36
f 53/135/37 54/136/37 81/137/37 97/138/37
f 10/129/38 38/36/38 57/139/38 49/140/38
f 49/140/39 57/139/39 58/122/39 50/121/39
f 109/11/28 11/10/28 54/141/28 123/142/28
f 123/142/37 54/141/37 53/50/37 124/49/37
f 21/143/40 43/144/40 90/145/40 89/146/40
f 68/147/21 67/148/21 102/149/21 86/150/21
f 37/33/41 12/32/41 52/151/41 59/152/41
f 59/152/42 52/151/42 51/42/42 60/41/42
f 133/31/6 10/30/6 49/153/6 153/154/6
f 153/154/6 49/153/6 50/25/6 154/24/6
f 47/155/43 31/156/43 87/157/43 88/158/43
f 15/159/11 53/135/11 97/138/11 78/160/11
f 24/132/44 44/4/44 69/161/44 65/162/44
f 65/162/45 69/161/45 70/104/45 66/103/45
f 116/163/16 24/164/16 65/165/16 127/166/16
f 127/166/16 65/165/16 66/102/16 128/101/16
f 136/76/46 21/75/46 67/167/46 155/168/46
f 155/168/21 67/167/21 68/100/21 156/99/21
f 38/169/20 9/106/20 76/109/20 75/170/20
f 67/148/46 21/143/46 89/146/46 102/149/46
f 43/70/47 22/69/47 62/171/47 71/172/47
f 71/172/48 62/171/48 61/94/48 72/93/48
f 95/173/49 82/174/49 80/175/49 79/176/49
f 93/177/50 101/178/50 91/179/50 92/180/50
f 86/181/51 94/182/51 88/183/51 87/184/51
f 97/185/52 96/186/52 77/187/52 78/188/52
f 74/189/53 73/190/53 100/191/53 81/192/53
f 81/192/54 100/191/54 96/186/54 97/185/54
f 75/193/55 76/194/55 98/195/55 99/196/55
f 99/196/56 98/195/56 82/174/56 95/173/56
f 89/197/57 90/198/57 104/199/57 102/200/57
f 102/200/58 104/199/58 94/182/58 86/181/58
f 83/201/59 84/202/59 85/203/59 103/204/59
f 103/204/60 85/203/60 101/178/60 93/177/60
f 55/107/37 56/205/37 82/206/37 98/108/37
f 43/144/36 71/207/36 104/208/36 90/145/36
f 57/209/61 38/169/61 75/170/61 99/210/61
f 71/207/25 72/211/25 94/212/25 104/208/25
f 39/46/62 15/159/62 78/160/62 77/47/62
f 58/125/63 57/209/63 99/210/63 95/126/63
f 32/213/43 48/214/43 92/215/43 91/216/43
f 37/217/61 59/218/61 100/219/61 73/220/61
f 48/214/64 70/95/64 93/98/64 92/215/64
f 59/218/63 60/45/63 96/48/63 100/219/63
f 13/221/62 40/124/62 79/127/62 80/222/62
f 72/211/64 47/155/64 88/158/64 94/212/64
f 63/223/26 32/213/26 91/216/26 101/224/26
f 23/225/46 64/226/46 85/227/46 84/228/46
f 64/226/21 63/223/21 101/224/21 85/227/21
f 11/229/20 37/217/20 73/220/20 74/230/20
f 44/133/40 23/225/40 84/228/40 83/134/40
f 54/136/28 11/229/28 74/230/28 81/137/28
f 56/205/11 13/221/11 80/222/11 82/206/11
f 31/156/26 68/147/26 86/150/26 87/157/26
f 64/231/21 129/232/21 130/233/21 63/234/21
f 23/235/46 115/236/46 129/232/46 64/231/46
f 142/237/16 127/166/16 128/101/16 143/238/16
f 149/239/16 116/163/16 127/166/16 142/237/16
f 52/240/6 125/241/6 126/242/6 51/243/6
f 12/244/6 110/245/6 125/241/6 52/240/6
f 111/52/65 109/11/65 123/142/65 124/49/65
f 147/246/66 141/247/66 140/248/66 146/249/66
f 19/250/12 41/251/12 122/252/12 113/253/12
f 137/254/20 152/255/20 121/77/20 117/113/20
f 143/238/16 128/101/16 120/65/16 138/256/16
f 63/234/26 130/233/26 119/257/26 32/258/26
f 32/258/21 119/257/21 117/259/21 27/260/21
f 152/255/20 150/261/20 118/78/20 121/77/20
f 3/262/19 105/263/19 115/236/19 23/235/19
f 144/264/18 106/71/18 116/74/18 149/265/18
f 138/256/16 120/65/16 118/68/16 150/266/16
f 16/267/14 112/268/14 114/269/14 20/270/14
f 147/246/13 111/52/13 113/58/13 148/271/13
f 41/272/12 20/273/12 114/274/12 122/252/12
f 151/81/67 119/257/67 115/236/67 136/76/67
f 8/275/7 108/276/7 110/245/7 12/244/7
f 51/243/6 126/242/6 112/277/6 16/278/6
f 8/279/5 4/280/5 106/281/5 108/282/5
f 3/262/3 7/9/3 107/8/3 105/263/3
f 145/17/3 107/8/3 109/11/3 146/249/3
f 5/18/3 145/17/3 146/249/3 9/283/3
f 56/284/11 141/247/11 147/246/11 13/285/11
f 13/285/13 147/246/13 148/271/13 17/286/13
f 30/287/16 138/256/16 150/266/16 26/288/16
f 2/289/18 144/264/18 149/265/18 22/290/18
f 45/291/20 26/292/20 150/261/20 152/255/20
f 61/293/16 143/238/16 138/256/16 30/287/16
f 25/294/20 45/291/20 152/255/20 137/254/20
f 9/283/28 146/249/28 140/248/28 55/295/28
f 55/295/37 140/248/37 141/247/37 56/284/37
f 22/296/16 149/239/16 142/237/16 62/297/16
f 62/297/16 142/237/16 143/238/16 61/293/16
f 109/11/37 111/52/37 147/246/37 146/249/37
f 130/233/68 129/232/68 115/236/68 119/257/68
f 125/241/6 153/154/6 154/24/6 126/242/6
f 110/245/6 133/31/6 153/154/6 125/241/6
f 113/253/12 122/252/12 139/53/12 148/119/12
f 151/298/69 136/299/69 155/300/69 156/301/69
f 119/257/21 151/81/21 137/84/21 117/259/21
f 105/263/19 131/16/19 136/76/19 115/236/19
f 112/268/14 134/59/14 135/62/14 114/269/14
f 122/252/12 114/274/12 135/54/12 139/53/12
f 108/276/7 132/28/7 133/31/7 110/245/7
f 126/242/6 154/24/6 134/27/6 112/277/6
f 108/282/5 106/281/5 144/21/5 132/20/5
f 105/263/3 107/8/3 145/17/3 131/16/3
